# xmcd
#
# Track frame offsets:
#	150
#	7216
#	26427
#	40459
#	53154
#	76660
#	92918
#	111966
#	138704
#	161374
#
# Disc length: 2816 seconds
#
# Revision: 0
# Processed by: cddbd v1.5.2PL0 Copyright (c) Steve Scherf et al.
# Submitted via: dBpowerAMP V4.0
#
DISCID=7d0afe0a
DTITLE=Blah Blah Tin - Serious Play disc 1
DYEAR=2008
DGENRE=Industrial
TTITLE0=Pretty Short Misleading Guitar
TTITLE1=F.Trop Muzik
TTITLE2=A New Way O' Working
TTITLE3=It Is About Cars
TTITLE4=Before I Was Me
TTITLE5=Attention Span
TTITLE6=Better Batteries
TTITLE7=Written To My Brother
TTITLE8=Liberty Mae
TTITLE9=My Hope Of Heaven
EXTD=
EXTT0=
EXTT1=
EXTT2=
EXTT3=
EXTT4=
EXTT5=
EXTT6=
EXTT7=
EXTT8=
EXTT9=
PLAYORDER=
